HIERARCHY
ROOT Hips
{
 OFFSET 0.000000 0.000000 0.000000
 CHANNELS 6 Xposition Yposition Zposition Yrotation Xrotation Zrotation
 JOINT Chest
 {
  OFFSET 0.000000 10.678932 0.006280
  CHANNELS 3 Yrotation Xrotation Zrotation
  JOINT Chest2
  {
   OFFSET 0.000000 10.491159 -0.011408
   CHANNELS 3 Yrotation Xrotation Zrotation
   JOINT Chest3
   {
    OFFSET 0.000000 9.479342 0.000000
    CHANNELS 3 Yrotation Xrotation Zrotation
    JOINT Chest4
    {
     OFFSET 0.000000 9.479342 0.000000
     CHANNELS 3 Yrotation Xrotation Zrotation
     JOINT Neck
     {
      OFFSET 0.000000 13.535332 0.000000
      CHANNELS 3 Yrotation Xrotation Zrotation
      JOINT Head
      {
       OFFSET 0.000000 8.819083 -0.027129
       CHANNELS 3 Yrotation Xrotation Zrotation
       End Site
       {
        OFFSET 0.000000 16.966594 -0.014170
       }
      }
     }
     JOINT RightCollar
     {
      OFFSET -3.012546 7.545150 0.000000
      CHANNELS 3 Yrotation Xrotation Zrotation
      JOINT RightShoulder
      {
       OFFSET -13.683099 0.000000 0.000000
       CHANNELS 3 Yrotation Xrotation Zrotation
       JOINT RightElbow
       {
        OFFSET -26.359998 0.000000 0.000000
        CHANNELS 3 Yrotation Xrotation Zrotation
        JOINT RightWrist
        {
         OFFSET -21.746691 0.000000 0.008601
         CHANNELS 3 Yrotation Xrotation Zrotation
         End Site
         {
          OFFSET -16.348058 0.000000 0.000000
         }
        }
       }
      }
     }
     JOINT LeftCollar
     {
      OFFSET 3.012546 7.545150 0.000000
      CHANNELS 3 Yrotation Xrotation Zrotation
      JOINT LeftShoulder
      {
       OFFSET 13.683099 0.000000 0.000000
       CHANNELS 3 Yrotation Xrotation Zrotation
       JOINT LeftElbow
       {
        OFFSET 26.359998 0.000000 0.000000
        CHANNELS 3 Yrotation Xrotation Zrotation
        JOINT LeftWrist
        {
         OFFSET 21.746691 0.000000 0.008601
         CHANNELS 3 Yrotation Xrotation Zrotation
         End Site
         {
          OFFSET 16.348058 0.000000 0.000000
         }
        }
       }
      }
     }
    }
   }
  }
 }
 JOINT RightHip
 {
  OFFSET -8.622479 -0.030774 -0.003140
  CHANNELS 3 Yrotation Xrotation Zrotation
  JOINT RightKnee
  {
   OFFSET 0.000000 -37.209160 -0.002630
   CHANNELS 3 Yrotation Xrotation Zrotation
   JOINT RightAnkle
   {
    OFFSET 0.000000 -37.343279 -0.058479
    CHANNELS 3 Yrotation Xrotation Zrotation
    JOINT RightToe
    {
     OFFSET 0.000000 -8.903465 15.088070
     CHANNELS 3 Yrotation Xrotation Zrotation
     End Site
     {
      OFFSET 0.000000 -1.471739 6.884388
     }
    }
   }
  }
 }
 JOINT LeftHip
 {
  OFFSET 8.622479 -0.030774 -0.003140
  CHANNELS 3 Yrotation Xrotation Zrotation
  JOINT LeftKnee
  {
   OFFSET 0.000000 -37.209160 -0.002630
   CHANNELS 3 Yrotation Xrotation Zrotation
   JOINT LeftAnkle
   {
    OFFSET 0.000000 -37.343279 -0.058479
    CHANNELS 3 Yrotation Xrotation Zrotation
    JOINT LeftToe
    {
     OFFSET 0.000000 -8.903465 15.088070
     CHANNELS 3 Yrotation Xrotation Zrotation
     End Site
     {
      OFFSET 0.000000 -1.471739 6.884388
     }
    }
   }
  }
 }
}
MOTION
Frames: 16
Frame Time: 0.150000
-27.884307 76.479380 130.007220 -156.972041 -1.186042 2.843320 6.915385 8.203459 -1.074393 0.548703 0.656825 -0.133036 0.844038 1.011591 -0.202182 5.906131 7.190767 -1.110911 -5.058897 14.975332 -3.479154 -8.156507 -8.415320 -4.597820 -3.358024 -3.040985 -0.442500 7.918061 -25.266593 57.532675 36.814506 -0.504500 4.033580 -1.442415 -4.843965 -25.176347 -0.989480 -15.242749 18.729882 32.103793 -32.516640 -64.621403 -104.096856 -18.665206 6.790414 19.089375 5.925970 20.036081 -3.889578 -14.265918 -21.539508 26.102131 32.803551 3.056191 4.104384 -27.973402 13.428735 -0.011538 0.697334 -0.412225 -17.705745 -10.701097 21.137663 -10.826369 52.397232 -1.467518 -7.020213 -6.739473 -27.283434 -0.424437 -26.196633 1.119606
-28.328429 75.494754 131.011208 -154.040132 -3.166265 5.770269 5.304509 9.005998 -0.700694 0.398515 0.676165 -0.077527 0.616411 1.046706 -0.117998 4.537419 7.773120 -0.608762 -4.594071 13.797980 -4.343889 -6.942603 -10.622658 -6.370645 -0.628714 -2.913488 -2.534958 3.198568 -24.557784 54.236621 32.937433 -3.251736 0.447992 -2.512762 -3.472312 -25.713349 -1.445621 -12.341235 17.341203 30.238154 -34.463312 -62.649486 -96.033817 -23.670020 4.421045 19.191584 5.777689 21.801538 -0.901313 -14.601781 -25.629713 25.388461 37.437367 3.250471 1.491515 -29.330977 14.863420 -0.045520 0.124479 0.041288 -19.955265 -12.453205 17.956892 -11.214315 53.482607 -2.234221 -13.159165 -10.551844 -14.630270 0.251770 -20.434251 -3.126843
-27.034739 76.590319 127.170813 -131.568250 -10.927738 -11.368607 -0.521755 10.199552 9.434138 -0.132804 1.027320 0.933087 -0.192019 1.533560 1.391454 -0.595789 8.508349 7.668016 -6.953140 13.855057 -0.540585 -12.902547 -10.197556 1.722775 3.461281 5.873128 -2.444171 31.226943 -35.450285 60.232331 48.525046 16.943286 7.490697 -5.867957 -2.281792 -22.571796 -28.172648 -12.085421 12.780979 -26.092396 -38.990184 -51.404796 -98.879621 -15.337603 -9.958661 18.493069 4.043104 16.484625 -2.027010 15.316483 -10.895384 -0.176566 16.603256 2.927844 1.769399 -20.942288 14.612093 0.104863 0.051787 -0.655876 12.098589 -30.552827 46.784874 19.328930 66.938025 -3.092342 -17.973905 7.386761 -10.133851 -2.473387 -28.466590 10.364857
-27.414404 75.012025 127.967667 -129.024443 -10.304465 -12.685608 -0.949301 11.755408 10.232919 -0.189552 1.302315 1.035938 -0.270769 1.917370 1.523000 -0.847288 9.679866 7.616423 -6.993962 11.241570 -0.451378 -13.247087 -15.019746 2.198733 14.001465 9.641910 -5.996710 63.044104 -44.589107 44.984475 44.236688 17.462000 5.118967 -4.228719 -4.733196 -21.564021 -29.967375 -11.411346 14.675749 -48.664814 -41.115287 -42.018357 -112.014600 4.109290 -21.238187 14.468212 2.921558 12.644928 4.668190 10.006407 -8.361456 -0.631161 27.485314 1.436201 -1.891932 -25.337167 14.295168 -0.210095 -0.703717 1.088566 8.305432 -32.494401 44.344832 0.542012 70.623364 -14.575865 -12.534069 -5.036177 -17.100745 -2.410724 -22.049074 15.903326
-23.302639 80.127119 131.488386 -152.746362 -10.156054 -7.394788 3.741426 12.691394 4.674742 0.348785 1.272326 0.420902 0.524221 1.898527 0.631312 3.201400 10.446985 3.755919 -3.245319 12.707730 -0.437576 -5.992425 -12.536886 0.517416 3.207913 -3.516742 -4.799132 30.985120 -39.316054 41.290519 38.879771 0.137367 5.875364 -2.220946 -3.967706 -22.036326 -10.659003 -13.225482 28.811458 -5.631941 -15.507878 -42.847677 -82.850482 -1.018453 -10.239061 7.725434 1.924632 21.042692 -5.215810 -11.394506 -16.273901 14.425082 36.851198 5.828271 10.301813 -8.712237 13.601357 0.053440 -2.681156 -0.622125 16.226051 -16.498023 27.423979 18.933894 47.049998 -1.690514 11.633676 -13.595618 -10.930957 -0.074307 -1.635983 0.872505
-13.540513 87.056041 132.707283 -150.202359 -0.417636 -2.826128 0.430581 8.196624 0.904419 -0.000396 0.484077 0.014337 -0.000572 0.767869 0.022741 0.006929 7.293969 0.216780 -3.024392 13.000180 -1.197100 -5.249836 -12.031288 -1.028692 -6.418728 -4.600794 -14.136244 4.622441 -33.090931 14.893206 -2.280213 -24.263468 2.887883 -3.614186 -5.329501 -20.682609 3.353191 -12.015249 38.408742 12.403590 -10.807606 -33.122550 -15.809501 -16.061336 -6.126038 4.846197 3.756947 15.820775 -4.600517 -14.804593 -9.817634 8.196289 48.073868 10.151283 15.162724 12.366581 21.126091 -1.667564 -11.052744 -8.642289 2.992310 -18.968776 25.679099 13.547555 33.360458 -3.936080 -0.087378 13.830113 -11.895701 -0.037947 -9.893594 -1.496036
-4.813696 82.868543 137.202182 -151.927159 3.625849 1.511630 0.268320 5.713483 -2.001266 0.014286 0.262091 -0.102837 0.022918 0.424794 -0.166641 0.198109 5.315448 -2.077066 -2.012058 10.954321 -0.485804 -3.662897 -15.828535 -0.037302 -7.156095 -8.608460 -16.538500 1.700697 -21.680246 22.426732 0.711925 -18.448684 0.649624 -2.810956 -5.601962 -21.716292 10.657880 -5.782106 32.260590 18.803446 -4.950060 -36.174857 -33.052296 -10.290358 -0.608292 5.005448 6.204243 15.889243 -5.465690 -7.706314 -4.641204 6.593051 29.328198 5.795016 1.592426 -20.617204 -5.640670 0.013387 -2.315903 3.036439 -6.039837 -37.280114 28.570610 -136.069233 82.035866 -143.020613 1.420390 -13.343948 -14.715707 0.303987 -3.258077 0.666278
-3.238940 84.571203 139.557316 -156.983480 -1.611289 0.157708 0.912814 5.610805 0.870817 0.013099 0.178247 0.024747 0.021571 0.292974 0.040698 0.362769 4.589966 0.651885 -1.420651 15.662837 -1.794237 -1.988139 -7.105281 -2.823038 -3.053034 3.003786 3.582484 9.431986 -14.184492 61.986001 5.480145 -7.594563 3.203003 2.182308 -6.916412 -23.302201 5.413757 12.061521 1.974738 -1.189058 -6.148146 -74.871258 -22.484318 1.004428 -1.297348 3.579516 0.879787 16.508400 1.409892 3.933960 -2.073917 9.043982 9.991310 1.373542 -2.593850 -13.489727 -4.561518 -0.012514 1.294618 0.492329 -10.428122 -3.532494 1.385346 29.560143 38.234526 6.475672 2.303236 -14.357371 -12.878147 0.377953 5.159872 1.743970
-3.064404 82.714697 137.191612 -146.866456 -2.828713 0.783298 -1.823230 6.093690 -0.495442 -0.081189 0.279648 -0.029008 -0.131486 0.452622 -0.047152 -1.643942 5.545547 -0.652299 -2.767802 13.912916 0.657716 -5.481915 -10.264949 2.336316 2.127976 4.625116 8.164353 18.098672 -5.854818 76.495845 -6.967640 -3.439548 0.690626 -2.349795 -5.879571 -26.564700 -2.288560 6.971606 -7.132646 -14.613543 -4.282516 -82.439900 -5.455486 12.053562 0.820736 0.865756 1.124753 24.787969 -4.147206 -1.168548 -2.649094 2.782658 25.203586 1.851473 -1.369978 -21.615870 -5.077150 -0.034583 -0.347916 -0.001526 -11.275397 8.431442 -4.577466 7.988404 10.205266 0.963625 12.382701 -18.160521 -7.476201 0.033067 0.905807 0.574133
-3.517330 82.827234 133.061973 -147.225597 -3.154469 3.468157 4.281540 9.569510 -3.972179 0.376410 0.792382 -0.374578 0.573982 1.213639 -0.571168 3.640645 8.248352 -3.620475 -5.151482 11.493861 2.532748 -10.978931 -14.393551 7.088644 8.795450 -4.082067 3.571250 50.903391 -8.908041 73.306484 9.178379 41.715864 3.301721 -31.369855 20.760147 26.241062 -6.558856 -0.794191 0.806208 -23.854854 5.373878 -78.183478 -27.840014 46.907758 -11.258749 0.933370 4.766832 18.846749 -9.182674 -14.781633 -10.426333 5.209059 51.912810 9.708916 4.439226 -23.727973 1.409100 -0.106382 -2.635551 -2.336573 -6.395774 13.236235 -4.877641 8.278406 2.885744 -0.424153 10.083145 -17.268232 -7.705458 0.012274 -0.535427 -0.479372
-4.163855 79.784305 119.231826 -135.228626 -2.869213 -3.757806 -5.236469 8.516744 1.698149 -0.439421 0.649709 0.153935 -0.678845 1.005253 0.235959 -4.918237 7.447942 1.461815 -1.900732 11.939819 -1.661451 -2.923386 -14.020800 -2.362651 2.470434 -2.568054 -9.506419 25.036428 -23.455639 54.998752 121.491092 -7.215117 17.965321 -17.452434 9.367149 33.934605 4.985430 7.275963 16.007442 -24.075724 20.686461 -88.963721 -92.069603 43.263936 -43.765539 -3.119149 6.418930 14.745154 6.159172 -8.463495 1.451590 2.281687 53.793599 9.059653 2.801321 -17.204209 6.394145 -0.043628 -11.749388 -9.117128 1.873362 -18.931700 23.952148 11.148929 66.551181 -3.839974 -6.175288 -5.757466 -14.660348 -1.521736 -30.952707 5.664047
-4.900975 73.867429 107.272388 -132.396666 1.227565 -7.143295 -3.078596 6.310743 5.203228 -0.264308 0.403335 0.351595 -0.414021 0.634204 0.551392 -3.343549 5.533760 4.569248 -3.493293 11.132472 -3.199396 -5.306138 -15.542545 -4.609777 -7.348943 -4.034335 2.981143 -38.060245 -27.338183 87.970074 135.812150 -28.869439 -11.355747 39.948113 -8.933440 -35.403428 17.230228 12.504659 13.873573 -18.858780 25.804933 -87.937242 -110.488303 30.234208 -48.585252 -5.257134 3.842436 16.163948 7.340790 2.142938 11.151387 -0.430774 41.136542 10.644003 6.529166 -34.613629 -11.790740 0.372944 -10.075334 -4.688879 -6.708633 -55.042787 52.900828 -111.674408 80.881941 -132.527184 -2.795730 -0.063777 -11.576962 0.646301 2.581371 2.437133
-17.808649 83.040974 98.042750 -133.831556 -1.606310 2.570388 0.269519 5.541992 -1.516647 0.024244 0.216147 0.020505 0.039664 0.353264 0.033560 0.585247 5.023940 0.501740 -5.935727 14.652400 -2.929194 -10.016368 -8.971614 -3.218629 0.615491 0.254872 8.536495 -10.896215 -20.801152 73.538178 22.436234 -53.182739 -2.209365 27.017034 -8.273201 -49.883765 8.550292 6.310660 13.637109 -20.513641 24.078153 -79.429397 -112.276691 24.197843 -51.695153 -5.847890 2.929558 18.504982 0.367536 12.443411 -0.694019 -4.282725 35.878751 4.438645 4.993315 0.789602 2.514885 5.517256 -41.548517 -13.583969 11.086710 -12.437049 9.822765 15.043619 41.171460 -1.204595 -0.416300 -3.493874 -14.846012 -0.474906 -16.632882 6.369762
-19.165631 86.690871 87.239456 -145.889089 -4.979752 -0.512665 0.769288 8.345971 1.229920 -0.011706 0.395472 -0.001369 -0.018735 0.632787 -0.002229 -0.199314 6.661929 -0.034006 -3.121354 14.397771 -4.892843 -3.968185 -9.475181 -7.987349 5.512159 -0.825630 2.716589 23.033480 -11.047421 58.515855 83.477828 -7.426400 22.484280 -11.103158 -4.843385 10.631445 5.462887 9.078061 16.420547 -22.975689 22.914656 -82.314862 -111.037775 28.724219 -46.775838 -8.095918 4.470443 18.883462 -3.392152 -1.744610 2.607351 0.777089 26.713904 2.568689 2.628018 -11.367185 5.097605 -1.259548 6.756359 -0.988907 6.855225 1.993455 15.110520 26.059204 32.143103 2.946625 2.609580 8.497016 -10.697980 0.931582 -29.515668 -6.290959
-22.392299 77.674179 75.177877 -130.023699 -11.813088 -4.907706 -9.107064 11.687296 5.894081 -0.757395 0.952385 0.799007 -1.121588 1.420085 1.183727 -5.724577 7.915884 6.080527 -2.026504 15.018884 -9.315727 -0.298937 -8.017275 -16.674117 -3.931034 -0.571765 2.181415 -36.794588 -21.644874 84.003395 142.577774 -24.447770 -0.479551 36.215127 -14.493489 -26.416016 17.947596 15.769208 9.870283 -23.525853 26.695203 -92.563331 -105.100890 28.683332 -43.205607 -9.191943 0.736435 21.503954 3.782845 -1.949601 9.085944 -4.619434 42.285687 8.064032 6.356955 -28.160287 -10.901534 0.757052 0.607967 3.126346 -4.461156 -35.353704 37.629326 -169.487678 84.003069 -178.416963 2.568338 2.196247 -7.553267 0.704844 1.251370 2.193504
-32.325477 82.929388 60.398278 -133.077915 -7.319923 0.971620 -1.403626 6.988658 0.413172 -0.058849 0.393775 0.086994 -0.093764 0.629343 0.138837 -0.901674 6.536576 1.395183 -5.501440 17.405600 -4.962012 -8.456210 -3.954053 -7.275144 -0.694545 -0.260583 3.765900 -8.294640 -16.669099 77.400252 34.244844 -60.456218 -2.607494 31.747318 -8.494037 -55.152763 12.566365 7.671993 11.632001 -22.823845 24.345580 -82.005906 -111.424567 24.894476 -48.061715 -10.638785 2.247412 18.700332 2.950523 10.333247 6.543719 -8.318058 28.807826 2.304951 8.882780 -11.491450 0.762431 2.086307 -16.400848 -12.378126 10.290111 -22.845944 14.108717 17.536016 48.198777 -3.382206 -13.529163 14.479470 -21.607547 0.192741 -13.008570 16.057823
